<?xml version="1.0" standalone="no"?>
<!DOCTYPE svg PUBLIC "-//W3C//DTD SVG 20010904//EN"
 "http://www.w3.org/TR/2001/REC-SVG-20010904/DTD/svg10.dtd">
<svg version="1.0" xmlns="http://www.w3.org/2000/svg"
 width="415.000000pt" height="415.000000pt" viewBox="0 0 415.000000 415.000000"
 preserveAspectRatio="xMidYMid meet">
<metadata>
Created by potrace 1.14, written by Peter Selinger 2001-2017
</metadata>
<g transform="translate(0.000000,415.000000) scale(0.100000,-0.100000)"
fill="#000000" stroke="none">
<path d="M908 4145 c-2 -2 -17 -6 -33 -9 -17 -2 -31 -5 -32 -6 -2 -2 -6 -3
-10 -4 -5 -1 -18 -8 -31 -17 -23 -17 -30 -66 -17 -119 3 -14 8 -34 10 -45 11
-59 18 -73 56 -109 23 -21 42 -44 44 -50 6 -29 20 -53 43 -72 20 -16 25 -31
27 -69 1 -33 6 -50 16 -53 8 -2 10 0 4 5 -16 12 -11 58 8 84 9 13 23 32 30 42
10 15 31 18 122 22 61 2 162 8 225 11 63 4 132 8 152 8 21 1 38 5 38 9 0 4 9
3 20 -3 16 -9 22 -6 35 20 8 16 20 30 26 30 7 0 8 7 4 18 -4 9 -8 22 -9 27 -1
6 -10 28 -20 51 -16 36 -25 43 -90 67 -39 15 -78 27 -87 27 -9 0 -19 3 -23 7
-3 4 -13 8 -21 10 -35 7 -41 9 -70 20 -26 10 -167 54 -187 59 -5 1 -9 3 -10 4
-2 1 -13 4 -25 5 -12 1 -30 6 -40 10 -33 15 -146 29 -155 20z"/>
<path d="M970 3550 c5 -19 5 -30 -1 -30 -6 0 -8 -4 -5 -8 3 -5 6 -54 7 -110 1
-68 5 -102 13 -102 7 0 8 -3 0 -8 -12 -8 -14 -606 -2 -618 4 -3 3 -15 -2 -25
-7 -12 -7 -20 0 -24 6 -4 7 -11 4 -17 -7 -11 -7 -98 1 -136 2 -12 -3 -27 -10
-34 -8 -7 -20 -18 -27 -24 -27 -23 -54 -60 -67 -92 -16 -38 -19 -67 -27 -272
-6 -139 -19 -200 -44 -200 -5 0 -6 -10 -3 -22 3 -13 5 -75 4 -140 -1 -127 8
-168 38 -168 12 0 20 -9 24 -26 7 -41 -2 -447 -11 -454 -20 -13 -55 -107 -57
-149 -2 -53 10 -66 70 -75 51 -8 80 -28 109 -75 13 -21 38 -53 55 -72 17 -18
31 -39 31 -47 0 -7 5 -10 10 -7 6 3 10 2 10 -3 0 -11 68 -82 79 -82 4 0 13 -8
22 -17 8 -10 39 -38 68 -63 30 -25 61 -52 70 -60 9 -9 39 -33 66 -55 28 -22
57 -47 66 -57 9 -10 19 -18 23 -18 8 0 43 -37 76 -81 77 -102 103 -129 125
-135 14 -3 25 -10 25 -16 0 -5 6 -5 16 0 9 5 25 7 35 5 13 -4 22 5 33 32 13
30 19 35 30 26 8 -7 17 -8 20 -3 5 9 66 7 93 -3 6 -2 14 -1 18 3 6 6 96 5 245
-2 36 -2 67 -5 70 -6 3 -1 10 -3 16 -4 14 -1 49 -37 49 -50 0 -14 94 -24 120
-12 11 5 44 46 72 90 60 94 74 112 128 173 63 71 129 136 175 174 24 19 67 58
96 86 30 29 54 51 54 48 0 -3 8 3 18 13 11 9 17 20 16 23 -2 3 8 12 21 19 13
7 22 17 19 22 -3 4 2 8 10 8 9 0 16 4 16 8 0 5 23 32 50 60 28 29 50 59 50 67
0 8 4 15 9 15 5 0 12 12 16 27 4 16 12 34 18 42 18 21 17 81 -1 115 -9 17 -17
54 -18 81 -1 28 -3 50 -4 50 0 0 -3 52 -5 115 -4 120 -13 361 -20 490 -7 141
-8 221 -3 226 3 2 36 6 73 8 52 2 73 7 91 23 13 11 24 19 26 18 2 -2 4 11 5
28 3 36 -15 116 -30 135 -5 6 -7 12 -4 12 3 0 -5 12 -19 27 -22 23 -33 27 -97
29 -90 3 -80 1 -105 22 -11 10 -22 31 -25 47 -3 17 -13 57 -22 90 -9 33 -18
67 -20 75 -2 8 -4 15 -5 15 -1 0 -3 7 -5 15 -18 71 -91 230 -105 230 -6 0 -8
5 -4 11 3 6 3 14 -2 18 -5 3 -23 26 -39 50 -59 88 -171 188 -265 240 -81 44
-270 90 -396 96 -23 1 -45 4 -50 7 -7 4 -79 4 -366 -3 -10 0 -20 -5 -23 -10
-4 -5 -10 -7 -15 -4 -22 14 -327 -105 -345 -135 -3 -6 -11 -8 -16 -5 -5 4 -9
1 -9 -5 0 -6 -8 -14 -17 -17 -10 -4 -27 -16 -39 -28 -12 -11 -46 -43 -75 -71
-56 -53 -119 -127 -119 -141 0 -11 -53 -117 -62 -123 -9 -7 -48 -127 -51 -152
-1 -10 -6 -18 -12 -18 -6 0 -11 90 -14 263 -2 144 -4 298 -5 342 0 44 -5 83
-11 87 -6 5 -5 8 3 8 10 0 10 5 1 21 -9 17 -8 20 2 14 9 -6 10 -3 5 11 -13 30
-13 58 -2 73 9 12 7 13 -7 8 -12 -5 -16 -3 -11 4 4 7 8 27 9 46 1 21 -1 29 -6
21 -6 -9 -8 -6 -7 9 2 14 7 19 18 15 13 -5 13 -4 0 12 -17 21 -23 99 -7 89 6
-3 7 -1 3 5 -3 5 -3 12 1 15 5 2 2 2 -4 1 -7 -2 -13 4 -13 12 0 9 5 12 12 8 6
-4 8 -3 4 4 -3 5 -3 12 1 15 5 2 2 2 -4 1 -15 -4 -17 12 -3 21 13 8 3 25 -15
25 -10 0 -12 -7 -5 -30z"/>
<path d="M995 3439 c-4 -6 -5 -12 -2 -15 2 -3 7 2 10 11 7 17 1 20 -8 4z"/>
</g>
</svg>
